<svg id="excel" xmlns="http://www.w3.org/2000/svg" width="25.17" height="23.596" viewBox="0 0 25.17 23.596">
  <g id="Group_4560" data-name="Group 4560">
    <g id="Group_4559" data-name="Group 4559">
      <path id="Path_10158" data-name="Path 10158" d="M13.873,16.19a.792.792,0,0,0-.647-.167L.642,18.383A.784.784,0,0,0,0,19.155v17.3a.786.786,0,0,0,.642.772l12.585,2.36a.752.752,0,0,0,.145.014.787.787,0,0,0,.787-.787V16.8A.784.784,0,0,0,13.873,16.19ZM12.585,37.87,1.573,35.806v-16l11.012-2.064Z" transform="translate(0 -16.01)" fill="#05f"/>
    </g>
  </g>
  <g id="Group_4562" data-name="Group 4562" transform="translate(12.585 3.145)">
    <g id="Group_4561" data-name="Group 4561">
      <path id="Path_10159" data-name="Path 10159" d="M267.8,79.99H256.787a.787.787,0,1,0,0,1.573h10.225V95.721H256.787a.787.787,0,1,0,0,1.573H267.8a.787.787,0,0,0,.787-.787V80.777A.787.787,0,0,0,267.8,79.99Z" transform="translate(-256 -79.99)" fill="#05f"/>
    </g>
  </g>
  <g id="Group_4564" data-name="Group 4564" transform="translate(12.585 6.291)">
    <g id="Group_4563" data-name="Group 4563">
      <path id="Path_10160" data-name="Path 10160" d="M259.933,143.99h-3.146a.787.787,0,1,0,0,1.573h3.146a.787.787,0,1,0,0-1.573Z" transform="translate(-256 -143.99)" fill="#05f"/>
    </g>
  </g>
  <g id="Group_4566" data-name="Group 4566" transform="translate(12.585 9.438)">
    <g id="Group_4565" data-name="Group 4565">
      <path id="Path_10161" data-name="Path 10161" d="M259.933,207.99h-3.146a.787.787,0,1,0,0,1.573h3.146a.787.787,0,1,0,0-1.573Z" transform="translate(-256 -207.99)" fill="#05f"/>
    </g>
  </g>
  <g id="Group_4568" data-name="Group 4568" transform="translate(12.585 12.584)">
    <g id="Group_4567" data-name="Group 4567">
      <path id="Path_10162" data-name="Path 10162" d="M259.933,271.99h-3.146a.787.787,0,0,0,0,1.573h3.146a.787.787,0,0,0,0-1.573Z" transform="translate(-256 -271.99)" fill="#05f"/>
    </g>
  </g>
  <g id="Group_4570" data-name="Group 4570" transform="translate(12.585 15.73)">
    <g id="Group_4569" data-name="Group 4569">
      <path id="Path_10163" data-name="Path 10163" d="M259.933,335.99h-3.146a.787.787,0,1,0,0,1.573h3.146a.787.787,0,1,0,0-1.573Z" transform="translate(-256 -335.99)" fill="#05f"/>
    </g>
  </g>
  <g id="Group_4572" data-name="Group 4572" transform="translate(18.877 6.291)">
    <g id="Group_4571" data-name="Group 4571">
      <path id="Path_10164" data-name="Path 10164" d="M386.36,143.99h-1.573a.787.787,0,1,0,0,1.573h1.573a.787.787,0,0,0,0-1.573Z" transform="translate(-384 -143.99)" fill="#05f"/>
    </g>
  </g>
  <g id="Group_4574" data-name="Group 4574" transform="translate(18.877 9.438)">
    <g id="Group_4573" data-name="Group 4573">
      <path id="Path_10165" data-name="Path 10165" d="M386.36,207.99h-1.573a.787.787,0,0,0,0,1.573h1.573a.787.787,0,0,0,0-1.573Z" transform="translate(-384 -207.99)" fill="#05f"/>
    </g>
  </g>
  <g id="Group_4576" data-name="Group 4576" transform="translate(18.877 12.584)">
    <g id="Group_4575" data-name="Group 4575">
      <path id="Path_10166" data-name="Path 10166" d="M386.36,271.99h-1.573a.787.787,0,0,0,0,1.573h1.573a.787.787,0,0,0,0-1.573Z" transform="translate(-384 -271.99)" fill="#05f"/>
    </g>
  </g>
  <g id="Group_4578" data-name="Group 4578" transform="translate(18.877 15.73)">
    <g id="Group_4577" data-name="Group 4577">
      <path id="Path_10167" data-name="Path 10167" d="M386.36,335.99h-1.573a.787.787,0,1,0,0,1.573h1.573a.787.787,0,0,0,0-1.573Z" transform="translate(-384 -335.99)" fill="#05f"/>
    </g>
  </g>
  <g id="Group_4580" data-name="Group 4580" transform="translate(3.933 7.864)">
    <g id="Group_4579" data-name="Group 4579">
      <path id="Path_10168" data-name="Path 10168" d="M86.89,182.545l-5.506-6.292a.787.787,0,0,0-1.185,1.035l5.506,6.292a.787.787,0,0,0,1.185-1.035Z" transform="translate(-80.004 -175.984)" fill="#05f"/>
    </g>
  </g>
  <g id="Group_4582" data-name="Group 4582" transform="translate(3.933 7.078)">
    <g id="Group_4581" data-name="Group 4581">
      <path id="Path_10169" data-name="Path 10169" d="M86.775,160.159a.786.786,0,0,0-1.1.137l-5.506,7.079a.787.787,0,0,0,1.241.967l5.506-7.079A.786.786,0,0,0,86.775,160.159Z" transform="translate(-79.999 -159.992)" fill="#05f"/>
    </g>
  </g>
</svg>
