<svg xmlns="http://www.w3.org/2000/svg" width="47.839" height="41.109" viewBox="0 0 47.839 41.109">
  <g id="Group_6933" data-name="Group 6933" transform="translate(0 0.001)">
    <path id="Path_11477" data-name="Path 11477" d="M364.507,2107.2a10.7,10.7,0,0,1-4.305-.825l-17.019-7.761c-.779-.354-2.594-1.39-2.594-3.346s1.816-2.99,2.6-3.349l17.167-7.828a11.033,11.033,0,0,1,8.3,0l17.177,7.828c.781.355,2.6,1.391,2.6,3.349s-1.816,2.99-2.6,3.348l-17.019,7.76A10.679,10.679,0,0,1,364.507,2107.2Z" transform="translate(-340.588 -2083.277)" fill="#39cdf2" style="isolation: isolate"/>
    <path id="Path_11476" data-name="Path 11476" d="M364.507,2378.935a10.7,10.7,0,0,1-4.305-.825l-17.019-7.761c-.779-.354-2.594-1.39-2.594-3.346s1.816-2.99,2.6-3.349l17.167-7.827a11.028,11.028,0,0,1,8.3,0l17.177,7.827c.781.355,2.6,1.392,2.6,3.349s-1.816,2.99-2.6,3.347l-17.019,7.76A10.679,10.679,0,0,1,364.507,2378.935Z" transform="translate(-340.588 -2337.827)" fill="#3359f3" style="isolation: isolate"/>
    <g id="Group_6887" data-name="Group 6887" transform="translate(13.998 7.617)">
      <path id="Path_11498" data-name="Path 11498" d="M.834,16.541a.834.834,0,0,1-.292-.053.85.85,0,0,1-.535-.907L1.429,4.658C-4.6,4.658,11.3-.264,11.442.011a.871.871,0,0,1-.037.871L1.53,16.161a.833.833,0,0,1-.7.38Z" transform="matrix(0.848, 0.53, -0.53, 0.848, 8.765, 6.949)" fill="#fff"/>
      <path id="Path_11499" data-name="Path 11499" d="M.088,14.812a.861.861,0,0,1,.078-.89l10-13.581A.819.819,0,0,1,11.158.07a.852.852,0,0,1,.495.92l-1.506,9.2C16.135,10.188.23,15.1.088,14.812Z" transform="translate(8.162 0) rotate(29)" fill="#fff"/>
      <path id="Intersection_5" data-name="Intersection 5" d="M5.512,5.906,0,3.392,5.661.811a11.03,11.03,0,0,1,8.3,0L19.63,3.393,14.12,5.906a10.678,10.678,0,0,1-4.3.825A10.7,10.7,0,0,1,5.512,5.906Z" transform="translate(0.105 9.571)" fill="#fff" stroke="rgba(0,0,0,0)" stroke-miterlimit="10" stroke-width="1"/>
    </g>
  </g>
</svg>
