<svg id="Group_4599" data-name="Group 4599" xmlns="http://www.w3.org/2000/svg" width="24.266" height="24.324" viewBox="0 0 24.266 24.324">
  <g id="Group_4587" data-name="Group 4587">
    <path id="Path_10174" data-name="Path 10174" d="M28.93,30.324H11.337A3.1,3.1,0,0,1,8,27.537V8.787A3.1,3.1,0,0,1,11.337,6H28.93a3.1,3.1,0,0,1,3.337,2.787v18.75A3.1,3.1,0,0,1,28.93,30.324ZM11.337,7.52A1.411,1.411,0,0,0,9.82,8.787v18.75A1.411,1.411,0,0,0,11.337,28.8H28.93a1.411,1.411,0,0,0,1.517-1.267V8.787A1.411,1.411,0,0,0,28.93,7.52Z" transform="translate(-8 -6)" fill="#05f"/>
  </g>
  <g id="Group_4607" data-name="Group 4607" transform="translate(8 0.148)">
    <g id="Group_4606" data-name="Group 4606" transform="translate(1 9.921)">
      <path id="Path_10182" data-name="Path 10182" d="M172.9,364.155h-1.489a.745.745,0,0,1,0-1.489H172.9a.745.745,0,0,1,0,1.489Z" transform="translate(-170.667 -352.24)" fill="#05f"/>
      <path id="Path_10183" data-name="Path 10183" d="M172.9,321.488h-1.489a.745.745,0,1,1,0-1.489H172.9a.745.745,0,1,1,0,1.489Z" transform="translate(-170.667 -312.552)" fill="#05f"/>
      <path id="Path_10184" data-name="Path 10184" d="M172.9,278.822h-1.489a.745.745,0,0,1,0-1.489H172.9a.745.745,0,0,1,0,1.489Z" transform="translate(-170.667 -272.865)" fill="#05f"/>
      <path id="Path_10185" data-name="Path 10185" d="M172.9,236.155h-1.489a.745.745,0,1,1,0-1.489H172.9a.745.745,0,0,1,0,1.489Z" transform="translate(-170.667 -233.177)" fill="#05f"/>
      <path id="Path_10189" data-name="Path 10189" d="M215.567,342.822h-1.489a.745.745,0,1,1,0-1.489h1.489a.745.745,0,1,1,0,1.489Z" transform="translate(-210.354 -332.397)" fill="#05f"/>
      <path id="Path_10190" data-name="Path 10190" d="M215.567,300.155h-1.489a.745.745,0,1,1,0-1.489h1.489a.745.745,0,1,1,0,1.489Z" transform="translate(-210.354 -292.709)" fill="#05f"/>
      <path id="Path_10191" data-name="Path 10191" d="M215.567,257.488h-1.489a.745.745,0,1,1,0-1.489h1.489a.745.745,0,0,1,0,1.489Z" transform="translate(-210.354 -253.02)" fill="#05f"/>
      <path id="Path_10192" data-name="Path 10192" d="M215.567,214.822h-1.489a.745.745,0,1,1,0-1.489h1.489a.745.745,0,0,1,0,1.489Z" transform="translate(-210.354 -213.333)" fill="#05f"/>
    </g>
    <g id="Group_4608" data-name="Group 4608">
      <path id="Path_10213" data-name="Path 10213" d="M151.244,6.354A.635.635,0,0,1,150.676,6l-1.27-2.54a.635.635,0,0,1,0-.568l1.27-2.54a.635.635,0,1,1,1.137.568h3.009l-2.479,1.839-.53,2.673a.635.635,0,0,1-.569.92Z" transform="translate(-149.339 -0.004)" fill="#05f"/>
      <path id="Path_10214" data-name="Path 10214" d="M235.3,6.355a.635.635,0,0,1-.568-.92l-1.186-3.7,1.186-.813a.635.635,0,1,1,1.137-.568l1.27,2.54a.635.635,0,0,1,0,.568L235.871,6A.635.635,0,0,1,235.3,6.355Z" transform="translate(-229.587 -0.004)" fill="#05f"/>
      <path id="Path_10215" data-name="Path 10215" d="M177.408,50.243a2.272,2.272,0,0,1-2.129-3.072l.874-4a.635.635,0,0,1,.62-.5h1.27a.635.635,0,0,1,.62.5l.9,4.091a2.234,2.234,0,0,1-.547,2.321A2.269,2.269,0,0,1,177.408,50.243Zm-.127-6.306-.788,3.593a1.061,1.061,0,0,0,.2,1.149,1,1,0,0,0,1.651-1.063l-.814-3.68Z" transform="translate(-173.598 -41.129)" fill="#05f"/>
    </g>
  </g>
</svg>
