<svg id="Group_4868" data-name="Group 4868" xmlns="http://www.w3.org/2000/svg" width="24.086" height="29.785" viewBox="0 0 24.086 29.785">
  <path id="Path_10262" data-name="Path 10262" d="M66.839,3.569H62.2a4.031,4.031,0,0,0-8.008,0H49.558a3.407,3.407,0,0,0-3.4,3.4v.175a3.406,3.406,0,0,0,2.15,3.161V26.383a3.407,3.407,0,0,0,3.4,3.4h12.98a3.407,3.407,0,0,0,3.4-3.4V10.307a3.406,3.406,0,0,0,2.15-3.161V6.972A3.407,3.407,0,0,0,66.839,3.569ZM58.2,1.614a2.422,2.422,0,0,1,2.373,1.955H55.825A2.422,2.422,0,0,1,58.2,1.614Zm8.279,24.769a1.791,1.791,0,0,1-1.789,1.789H51.708a1.791,1.791,0,0,1-1.789-1.789V10.549H66.477Zm2.15-19.236a1.791,1.791,0,0,1-1.789,1.789H49.558a1.791,1.791,0,0,1-1.789-1.789V6.972a1.791,1.791,0,0,1,1.789-1.789H66.839a1.791,1.791,0,0,1,1.789,1.789v.175Z" transform="translate(-46.155)" fill="#ff0f0f"/>
  <path id="Path_10263" data-name="Path 10263" d="M158.882,260.27a.807.807,0,0,0,.807-.807v-9.085a.807.807,0,1,0-1.614,0v9.085A.807.807,0,0,0,158.882,260.27Z" transform="translate(-151.165 -234.162)" fill="#ff0f0f"/>
  <path id="Path_10264" data-name="Path 10264" d="M228.952,260.27a.807.807,0,0,0,.807-.807v-9.085a.807.807,0,1,0-1.614,0v9.085A.807.807,0,0,0,228.952,260.27Z" transform="translate(-216.909 -234.162)" fill="#ff0f0f"/>
  <path id="Path_10265" data-name="Path 10265" d="M299.021,260.27a.807.807,0,0,0,.807-.807v-9.085a.807.807,0,1,0-1.614,0v9.085A.807.807,0,0,0,299.021,260.27Z" transform="translate(-282.652 -234.162)" fill="#ff0f0f"/>
</svg>
