<svg xmlns="http://www.w3.org/2000/svg" width="17.731" height="17.73" viewBox="0 0 17.731 17.73">
  <path id="linkedin-logo" d="M0,1.27V16.461a1.291,1.291,0,0,0,1.31,1.27H16.42a1.291,1.291,0,0,0,1.31-1.27V1.27A1.291,1.291,0,0,0,16.42,0H1.31A1.291,1.291,0,0,0,0,1.27ZM5.375,14.842H2.7V6.836H5.375v8.006Zm-1.339-9.1H4.018a1.388,1.388,0,1,1,.035-2.766,1.388,1.388,0,1,1-.018,2.766Zm2.821,9.1s.035-7.255,0-8.006H9.535V8H9.517a2.67,2.67,0,0,1,2.431-1.349c1.762,0,3.083,1.144,3.083,3.6v4.591H12.354V10.559c0-1.076-.388-1.811-1.357-1.811a1.465,1.465,0,0,0-1.374.973,1.813,1.813,0,0,0-.088.649v4.471H6.857Z" fill="#2e3c43" fill-rule="evenodd"/>
</svg>
