<svg xmlns="http://www.w3.org/2000/svg" width="222.16" height="64" viewBox="0 0 222.16 64">
  <g id="Group_7078" data-name="Group 7078" transform="translate(-590.889 -61)">
    <g id="Group_7075" data-name="Group 7075" transform="translate(590.889 61)">
      <g id="Group_7071" data-name="Group 7071" transform="translate(0 21.551)">
        <g id="Group_7073" data-name="Group 7073" transform="translate(58.131 3.075)">
          <path id="Path_11304" data-name="Path 11304" d="M3040.462,1692.432a27.721,27.721,0,0,1-3.179,4.457h5.131a21.98,21.98,0,0,0,2.257-4.457Z" transform="translate(-3014.075 -1673.867)" fill="#fff"/>
          <path id="Path_11305" data-name="Path 11305" d="M3187.249,1514.764a17.5,17.5,0,0,1-1.132,3.207h3.9a15.139,15.139,0,0,0,.491-3.207Z" transform="translate(-3158.952 -1500.923)" fill="#fff"/>
          <path id="Path_11306" data-name="Path 11306" d="M2731.912,1938.433a54.751,54.751,0,0,1-6.345,5.365h6.874a42.446,42.446,0,0,0,5.059-5.365Z" transform="translate(-2710.648 -1913.327)" fill="#fff"/>
          <path id="Path_11307" data-name="Path 11307" d="M3072.832,998.775h1.265a19.107,19.107,0,0,0-4.589-4.563A14.471,14.471,0,0,1,3072.832,998.775Z" transform="translate(-3045.443 -994.212)" fill="#fff"/>
          <path id="Path_11308" data-name="Path 11308" d="M3239.608,1363.1a13.855,13.855,0,0,1-.116,2.516h2.959a13.874,13.874,0,0,0-.4-2.516Z" transform="translate(-3210.907 -1353.289)" fill="#fff"/>
          <path id="Path_11309" data-name="Path 11309" d="M2176.375,2218.6a114.565,114.565,0,0,1-11.926,6.819h9.563a89.262,89.262,0,0,0,9.794-6.819Z" transform="translate(-2164.449 -2186.045)" fill="#fff"/>
          <path id="Path_11310" data-name="Path 11310" d="M3209.359,1200.43a13.766,13.766,0,0,1,.763,2.809h2.117a15.885,15.885,0,0,0-1.4-2.809Z" transform="translate(-3181.575 -1194.947)" fill="#fff"/>
        </g>
        <g id="Group_7072" data-name="Group 7072" transform="translate(0 0)">
          <path id="Path_11303" data-name="Path 11303" d="M3.226,921.019c4.3-.7,28.158-4.872,43.753-13.185C66.15,896.8,59.112,878.57,59.112,878.57c1.318,13.681-5.461,22.112-15.163,26.655-20.694,8.6-60.04,14.9-65.777,15.793Z" transform="translate(21.828 -878.57)" fill="#fff"/>
          <path id="Path_11311" data-name="Path 11311" d="M3026.494,902.627c.01.092.021.184.03.276,29.214,16.129,16.767,38.115,14.586,41.533h5.2C3048.038,940.764,3058.372,915.727,3026.494,902.627Z" transform="translate(-2945.442 -901.987)" fill="#fff"/>
        </g>
      </g>
      <g id="Group_7070" data-name="Group 7070" transform="translate(31.018 0)">
        <path id="Path_11302" data-name="Path 11302" d="M1713.734,647.286a10.215,10.215,0,1,1,3.988-.806A10.18,10.18,0,0,1,1713.734,647.286Zm0-17.829a7.585,7.585,0,1,0,5.363,2.222A7.535,7.535,0,0,0,1713.734,629.458Z" transform="translate(-1688.633 -611.942)" fill="#fff"/>
        <g id="Group_7069" data-name="Group 7069" transform="translate(0)">
          <path id="Path_11312" data-name="Path 11312" d="M1152.079,110.905l10.873,10.87q1.478-.412,2.925-.836l-11.917-11.915a22.455,22.455,0,1,1,31.738,0l-7.93,7.93q.879-.344,1.72-.693a27.7,27.7,0,0,0,10.675-8.381,24.86,24.86,0,0,0,2.924-5.269,27.9,27.9,0,0,0,1.564-13.006s.017.045.048.131a25.107,25.107,0,1,0-42.619,21.167Z" transform="translate(-1144.727 -68.056)" fill="#fff"/>
        </g>
      </g>
    </g>
    <path id="Path_11313" data-name="Path 11313" d="M3.154-25.284H7.86v12.323a6.162,6.162,0,0,0,.346,2.077,5.138,5.138,0,0,0,.989,1.7A4.683,4.683,0,0,0,10.75-8.03a4.819,4.819,0,0,0,2.056.424,4.7,4.7,0,0,0,2.021-.424,4.627,4.627,0,0,0,1.54-1.152,5.2,5.2,0,0,0,.982-1.7,6.162,6.162,0,0,0,.346-2.077V-25.284h2.968v12.323a7.836,7.836,0,0,1-.5,2.805,6.008,6.008,0,0,1-1.576,2.31A7.717,7.717,0,0,1,15.83-6.277a12.464,12.464,0,0,1-4.042.579,11.018,11.018,0,0,1-3.724-.579A7.887,7.887,0,0,1,5.359-7.853a6.575,6.575,0,0,1-1.646-2.325A7.221,7.221,0,0,1,3.154-13ZM32.279-5.839a10.173,10.173,0,0,1-3.017-.4,6.831,6.831,0,0,1-2.2-1.109A5.434,5.434,0,0,1,25.623-9.04a6.822,6.822,0,0,1-.735-2.155h3.264a5.705,5.705,0,0,0,.495,1.342,3.9,3.9,0,0,0,.827,1.081,3.678,3.678,0,0,0,1.187.721,4.446,4.446,0,0,0,1.59.261,5.552,5.552,0,0,0,1.18-.127,3.3,3.3,0,0,0,1.053-.417,2.277,2.277,0,0,0,.749-.749,2.133,2.133,0,0,0,.283-1.138,2.684,2.684,0,0,0-.438-1.512,4.911,4.911,0,0,0-1.159-1.208,10.917,10.917,0,0,0-1.639-1.01q-.919-.466-1.879-.94t-1.879-1a9.54,9.54,0,0,1-1.639-1.166,5.337,5.337,0,0,1-1.159-1.456,3.854,3.854,0,0,1-.438-1.858,4.523,4.523,0,0,1,.5-2.113,4.954,4.954,0,0,1,1.448-1.682,7.172,7.172,0,0,1,2.318-1.116,11.087,11.087,0,0,1,3.123-.4,8.144,8.144,0,0,1,2.614.4,6.948,6.948,0,0,1,2.07,1.1,6.634,6.634,0,0,1,1.5,1.639,7.909,7.909,0,0,1,.933,2.014H36.843a10.163,10.163,0,0,0-.594-1.3,4.338,4.338,0,0,0-.834-1.088,3.673,3.673,0,0,0-1.2-.742,4.625,4.625,0,0,0-1.682-.276,4.358,4.358,0,0,0-1.547.24,2.9,2.9,0,0,0-1.01.615,2.261,2.261,0,0,0-.551.834,2.581,2.581,0,0,0-.17.9,2.3,2.3,0,0,0,.452,1.385A5.294,5.294,0,0,0,30.9-18.812a13.129,13.129,0,0,0,1.689,1.025q.947.488,1.929.982t1.929,1.039a10.46,10.46,0,0,1,1.689,1.194,5.63,5.63,0,0,1,1.194,1.441,3.524,3.524,0,0,1,.452,1.781,4.973,4.973,0,0,1-.48,2.176,4.891,4.891,0,0,1-1.427,1.745,7.1,7.1,0,0,1-2.353,1.166A11.255,11.255,0,0,1,32.279-5.839ZM53.222-25.68,62.209-6.122H57.4L55-11.35H47.555L45.04-6.122H41.846L51.187-25.68ZM48.445-13.131h5.766l-2.84-6.19ZM78.658-25.284v1.639H69.6v6.317h7.984v1.639H69.6v9.567H64.894V-25.284Zm2.968,0h4.692V-6.122H81.626Zm9.5,0h7.207a12.179,12.179,0,0,1,3.257.389,6.872,6.872,0,0,1,2.318,1.088,4.578,4.578,0,0,1,1.392,1.66,4.726,4.726,0,0,1,.466,2.091,3.823,3.823,0,0,1-.318,1.547,4.76,4.76,0,0,1-.89,1.342,6,6,0,0,1-1.385,1.088,8.921,8.921,0,0,1-1.788.784l6.825,9.171h-5.116l-6.43-8.663h-.834v8.663H91.122Zm4.706,8.818h1.017a5.112,5.112,0,0,0,1.6-.24,3.837,3.837,0,0,0,1.272-.685,3.116,3.116,0,0,0,.841-1.1,3.431,3.431,0,0,0,.3-1.47,4.036,4.036,0,0,0-.233-1.4,3.364,3.364,0,0,0-.643-1.1,2.836,2.836,0,0,0-.989-.714,3.094,3.094,0,0,0-1.258-.254H95.828Zm14.16-8.818h4.692V-6.122h-4.692Z" transform="translate(698.37 108.766)" fill="#fff"/>
  </g>
</svg>
