<svg xmlns="http://www.w3.org/2000/svg" width="194.264" height="55.964" viewBox="0 0 194.264 55.964">
  <g id="Group_7078" data-name="Group 7078" transform="translate(-590.889 -61)">
    <g id="Group_7075" data-name="Group 7075" transform="translate(590.889 61)">
      <g id="Group_7071" data-name="Group 7071" transform="translate(0 18.845)">
        <g id="Group_7073" data-name="Group 7073" transform="translate(50.832 2.689)">
          <path id="Path_11304" data-name="Path 11304" d="M3040.063,1692.432a24.231,24.231,0,0,1-2.78,3.9h4.486a19.228,19.228,0,0,0,1.973-3.9Z" transform="translate(-3016.99 -1676.198)" fill="#00a699"/>
          <path id="Path_11305" data-name="Path 11305" d="M3187.107,1514.764a15.294,15.294,0,0,1-.99,2.8h3.414a13.232,13.232,0,0,0,.429-2.8Z" transform="translate(-3162.363 -1502.661)" fill="#00a699"/>
          <path id="Path_11306" data-name="Path 11306" d="M2731.116,1938.433a47.886,47.886,0,0,1-5.549,4.691h6.011a37.111,37.111,0,0,0,4.423-4.691Z" transform="translate(-2712.521 -1916.48)" fill="#00a699"/>
          <path id="Path_11307" data-name="Path 11307" d="M3072.415,998.2h1.106a16.711,16.711,0,0,0-4.013-3.99A12.655,12.655,0,0,1,3072.415,998.2Z" transform="translate(-3048.465 -994.212)" fill="#00a699"/>
          <path id="Path_11308" data-name="Path 11308" d="M3239.594,1363.1a12.123,12.123,0,0,1-.1,2.2h2.587a12.147,12.147,0,0,0-.351-2.2Z" transform="translate(-3214.497 -1354.52)" fill="#00a699"/>
          <path id="Path_11309" data-name="Path 11309" d="M2174.877,2218.6a100.162,100.162,0,0,1-10.428,5.963h8.362a78.049,78.049,0,0,0,8.564-5.963Z" transform="translate(-2164.449 -2190.134)" fill="#00a699"/>
          <path id="Path_11310" data-name="Path 11310" d="M3209.359,1200.43a12.044,12.044,0,0,1,.667,2.456h1.852a13.9,13.9,0,0,0-1.22-2.456Z" transform="translate(-3185.064 -1195.635)" fill="#00a699"/>
        </g>
        <g id="Group_7072" data-name="Group 7072" transform="translate(0 0)">
          <path id="Path_11303" data-name="Path 11303" d="M.08,915.689c3.764-.615,24.622-4.26,38.259-11.53,16.764-9.645,10.61-25.589,10.61-25.589,1.152,11.963-4.775,19.335-13.259,23.308-18.1,7.522-52.5,13.033-57.518,13.81Z" transform="translate(21.828 -878.57)" fill="#00a699"/>
          <path id="Path_11311" data-name="Path 11311" d="M3026.494,902.627c.009.081.018.161.027.242,25.545,14.1,14.662,33.329,12.755,36.318h4.549C3045.333,935.975,3054.369,914.082,3026.494,902.627Z" transform="translate(-2955.62 -902.068)" fill="#00a699"/>
        </g>
      </g>
      <g id="Group_7070" data-name="Group 7070" transform="translate(27.123 0)">
        <path id="Path_11302" data-name="Path 11302" d="M1712.447,644.714a8.932,8.932,0,1,1,3.487-.7A8.9,8.9,0,0,1,1712.447,644.714Zm0-15.59a6.632,6.632,0,1,0,4.69,1.943A6.589,6.589,0,0,0,1712.447,629.124Z" transform="translate(-1690.498 -613.808)" fill="#ff5a5f"/>
        <g id="Group_7069" data-name="Group 7069" transform="translate(0)">
          <path id="Path_11312" data-name="Path 11312" d="M1151.156,105.525l9.508,9.505q1.292-.36,2.557-.731L1152.8,103.881a19.635,19.635,0,1,1,27.753,0l-6.934,6.934q.769-.3,1.5-.606a24.22,24.22,0,0,0,9.335-7.328,21.739,21.739,0,0,0,2.557-4.607,24.4,24.4,0,0,0,1.368-11.373s.015.039.042.115a21.955,21.955,0,1,0-37.267,18.51Z" transform="translate(-1144.727 -68.056)" fill="#ff5a5f"/>
        </g>
      </g>
    </g>
    <path id="Path_11313" data-name="Path 11313" d="M3.154-25.334H7.269v10.775a5.389,5.389,0,0,0,.3,1.816,4.493,4.493,0,0,0,.865,1.489A4.1,4.1,0,0,0,9.8-10.246a4.214,4.214,0,0,0,1.8.371,4.113,4.113,0,0,0,1.767-.371,4.046,4.046,0,0,0,1.347-1.007,4.551,4.551,0,0,0,.859-1.489,5.389,5.389,0,0,0,.3-1.816V-25.334h2.595v10.775a6.852,6.852,0,0,1-.439,2.453,5.253,5.253,0,0,1-1.378,2.02,6.748,6.748,0,0,1-2.41,1.372,10.9,10.9,0,0,1-3.534.507,9.635,9.635,0,0,1-3.256-.507,6.9,6.9,0,0,1-2.366-1.378,5.75,5.75,0,0,1-1.44-2.033A6.314,6.314,0,0,1,3.154-14.6Zm25.468,17a8.9,8.9,0,0,1-2.638-.352,5.973,5.973,0,0,1-1.921-.97,4.752,4.752,0,0,1-1.26-1.477,5.965,5.965,0,0,1-.643-1.884h2.854a4.989,4.989,0,0,0,.432,1.174,3.413,3.413,0,0,0,.723.945,3.216,3.216,0,0,0,1.038.63,3.888,3.888,0,0,0,1.39.229,4.855,4.855,0,0,0,1.032-.111,2.89,2.89,0,0,0,.921-.365,1.991,1.991,0,0,0,.655-.655,1.866,1.866,0,0,0,.247-.995,2.347,2.347,0,0,0-.383-1.322,4.3,4.3,0,0,0-1.013-1.057,9.546,9.546,0,0,0-1.433-.884q-.8-.408-1.643-.822t-1.643-.871A8.342,8.342,0,0,1,23.9-18.136a4.667,4.667,0,0,1-1.013-1.273,3.37,3.37,0,0,1-.383-1.625,3.955,3.955,0,0,1,.439-1.847,4.332,4.332,0,0,1,1.267-1.47,6.271,6.271,0,0,1,2.027-.976,9.7,9.7,0,0,1,2.731-.352,7.122,7.122,0,0,1,2.286.346,6.075,6.075,0,0,1,1.81.958,5.8,5.8,0,0,1,1.316,1.433,6.916,6.916,0,0,1,.816,1.761H32.613a8.887,8.887,0,0,0-.519-1.137,3.793,3.793,0,0,0-.729-.951,3.212,3.212,0,0,0-1.05-.649,4.044,4.044,0,0,0-1.47-.241,3.811,3.811,0,0,0-1.353.21,2.532,2.532,0,0,0-.884.538,1.977,1.977,0,0,0-.482.729,2.257,2.257,0,0,0-.148.785,2.011,2.011,0,0,0,.4,1.211,4.629,4.629,0,0,0,1.044,1.013,11.48,11.48,0,0,0,1.477.9q.828.426,1.687.859t1.687.908a9.147,9.147,0,0,1,1.477,1.044,4.923,4.923,0,0,1,1.044,1.26,3.082,3.082,0,0,1,.4,1.557,4.348,4.348,0,0,1-.42,1.9,4.277,4.277,0,0,1-1.248,1.526A6.2,6.2,0,0,1,31.458-8.7,9.842,9.842,0,0,1,28.622-8.331ZM46.935-25.68l7.859,17.1h-4.2l-2.1-4.572H41.98l-2.2,4.572H36.988l8.168-17.1ZM42.758-14.707H47.8l-2.484-5.412ZM69.177-25.334V-23.9H61.256v5.524h6.982v1.433H61.256v8.366H57.142V-25.334Zm2.595,0h4.1V-8.578h-4.1Zm8.3,0h6.3a10.65,10.65,0,0,1,2.848.34,6.009,6.009,0,0,1,2.027.951A4,4,0,0,1,92.47-22.59a4.133,4.133,0,0,1,.408,1.829,3.343,3.343,0,0,1-.278,1.353,4.163,4.163,0,0,1-.778,1.174,5.25,5.25,0,0,1-1.211.951,7.8,7.8,0,0,1-1.563.686l5.968,8.02H90.542L84.92-16.153h-.729v7.575H80.076Zm4.115,7.711h.89a4.47,4.47,0,0,0,1.4-.21,3.355,3.355,0,0,0,1.112-.6,2.725,2.725,0,0,0,.735-.958,3,3,0,0,0,.266-1.285,3.529,3.529,0,0,0-.2-1.223,2.941,2.941,0,0,0-.562-.958,2.48,2.48,0,0,0-.865-.624,2.705,2.705,0,0,0-1.1-.222H84.191Zm12.382-7.711h4.1V-8.578h-4.1Z" transform="translate(684.477 105.993)" fill="#ff5a5f"/>
  </g>
</svg>
