<svg xmlns="http://www.w3.org/2000/svg" width="174" height="50.126" viewBox="0 0 174 50.126">
  <g id="Group_7345" data-name="Group 7345" transform="translate(-590.889 -61)">
    <g id="Group_7075" data-name="Group 7075" transform="translate(590.889 61)">
      <g id="Group_7071" data-name="Group 7071" transform="translate(0 16.879)">
        <g id="Group_7073" data-name="Group 7073" transform="translate(45.529 2.408)">
          <path id="Path_11304" data-name="Path 11304" d="M3039.773,1692.432a21.687,21.687,0,0,1-2.49,3.491h4.019a17.225,17.225,0,0,0,1.768-3.491Z" transform="translate(-3019.106 -1677.892)" fill="#fff"/>
          <path id="Path_11305" data-name="Path 11305" d="M3187,1514.764a13.689,13.689,0,0,1-.886,2.512h3.058a11.86,11.86,0,0,0,.385-2.512Z" transform="translate(-3164.84 -1503.923)" fill="#fff"/>
          <path id="Path_11306" data-name="Path 11306" d="M2730.537,1938.433a42.88,42.88,0,0,1-4.97,4.2h5.384a33.225,33.225,0,0,0,3.962-4.2Z" transform="translate(-2713.882 -1918.769)" fill="#fff"/>
          <path id="Path_11307" data-name="Path 11307" d="M3072.112,997.786h.991a14.963,14.963,0,0,0-3.594-3.574A11.337,11.337,0,0,1,3072.112,997.786Z" transform="translate(-3050.66 -994.212)" fill="#fff"/>
          <path id="Path_11308" data-name="Path 11308" d="M3239.583,1363.1a10.914,10.914,0,0,1-.091,1.97h2.317a10.9,10.9,0,0,0-.314-1.97Z" transform="translate(-3217.104 -1355.415)" fill="#fff"/>
          <path id="Path_11309" data-name="Path 11309" d="M2173.789,2218.6a89.733,89.733,0,0,1-9.34,5.341h7.49a69.949,69.949,0,0,0,7.671-5.341Z" transform="translate(-2164.449 -2193.103)" fill="#fff"/>
          <path id="Path_11310" data-name="Path 11310" d="M3209.358,1200.43a10.741,10.741,0,0,1,.6,2.2h1.659a12.454,12.454,0,0,0-1.093-2.2Z" transform="translate(-3187.598 -1196.135)" fill="#fff"/>
        </g>
        <g id="Group_7072" data-name="Group 7072" transform="translate(0 0)">
          <path id="Path_11303" data-name="Path 11303" d="M-2.205,911.817c3.372-.551,22.054-3.816,34.268-10.327,15.015-8.639,9.5-22.92,9.5-22.92,1.032,10.715-4.277,17.319-11.876,20.877-16.208,6.738-47.025,11.673-51.518,12.37Z" transform="translate(21.828 -878.57)" fill="#fff"/>
          <path id="Path_11311" data-name="Path 11311" d="M3026.494,902.627c.008.072.016.144.024.217,22.881,12.633,13.132,29.853,11.424,32.529h4.075C3043.367,932.5,3051.461,912.887,3026.494,902.627Z" transform="translate(-2963.013 -902.126)" fill="#fff"/>
        </g>
      </g>
      <g id="Group_7070" data-name="Group 7070" transform="translate(24.294 0)">
        <path id="Path_11302" data-name="Path 11302" d="M1711.513,642.845a8,8,0,1,1,3.123-.631A7.974,7.974,0,0,1,1711.513,642.845Zm0-13.964a5.941,5.941,0,1,0,4.2,1.74A5.9,5.9,0,0,0,1711.513,628.881Z" transform="translate(-1691.854 -615.163)" fill="#fff"/>
        <g id="Group_7069" data-name="Group 7069" transform="translate(0)">
          <path id="Path_11312" data-name="Path 11312" d="M1150.485,101.616,1159,110.13q1.157-.322,2.291-.655l-9.334-9.332a17.587,17.587,0,1,1,24.858,0l-6.211,6.211q.688-.269,1.347-.543a21.694,21.694,0,0,0,8.361-6.564,19.479,19.479,0,0,0,2.29-4.126,21.852,21.852,0,0,0,1.225-10.187s.014.035.037.1a19.664,19.664,0,1,0-33.38,16.579Z" transform="translate(-1144.727 -68.056)" fill="#fff"/>
        </g>
      </g>
    </g>
    <path id="Path_11313" data-name="Path 11313" d="M3.154-25.37H6.84v9.651a4.827,4.827,0,0,0,.271,1.627,4.024,4.024,0,0,0,.775,1.334,3.668,3.668,0,0,0,1.217.9,3.775,3.775,0,0,0,1.61.332,3.684,3.684,0,0,0,1.583-.332,3.624,3.624,0,0,0,1.206-.9,4.076,4.076,0,0,0,.769-1.334,4.827,4.827,0,0,0,.271-1.627V-25.37h2.324v9.651a6.137,6.137,0,0,1-.393,2.2,4.705,4.705,0,0,1-1.234,1.81,6.044,6.044,0,0,1-2.158,1.229,9.762,9.762,0,0,1-3.165.454A8.63,8.63,0,0,1,7-10.483a6.177,6.177,0,0,1-2.12-1.234,5.15,5.15,0,0,1-1.289-1.821,5.655,5.655,0,0,1-.437-2.214ZM25.965-10.14a7.967,7.967,0,0,1-2.363-.315,5.35,5.35,0,0,1-1.721-.869,4.256,4.256,0,0,1-1.129-1.323,5.343,5.343,0,0,1-.576-1.688h2.557a4.469,4.469,0,0,0,.387,1.051,3.057,3.057,0,0,0,.647.847,2.881,2.881,0,0,0,.93.564,3.482,3.482,0,0,0,1.245.2,4.348,4.348,0,0,0,.924-.1,2.588,2.588,0,0,0,.825-.327,1.783,1.783,0,0,0,.587-.587,1.671,1.671,0,0,0,.221-.891,2.1,2.1,0,0,0-.343-1.184,3.847,3.847,0,0,0-.908-.946,8.55,8.55,0,0,0-1.284-.791q-.719-.365-1.472-.736t-1.472-.78a7.472,7.472,0,0,1-1.284-.913,4.18,4.18,0,0,1-.908-1.14,3.018,3.018,0,0,1-.343-1.455,3.542,3.542,0,0,1,.393-1.655,3.88,3.88,0,0,1,1.134-1.317,5.617,5.617,0,0,1,1.815-.874,8.684,8.684,0,0,1,2.446-.315,6.379,6.379,0,0,1,2.048.31,5.442,5.442,0,0,1,1.621.858,5.2,5.2,0,0,1,1.179,1.284,6.2,6.2,0,0,1,.73,1.577H29.54a7.96,7.96,0,0,0-.465-1.018,3.4,3.4,0,0,0-.653-.852,2.876,2.876,0,0,0-.941-.581,3.622,3.622,0,0,0-1.317-.216,3.414,3.414,0,0,0-1.212.188,2.268,2.268,0,0,0-.791.481A1.77,1.77,0,0,0,23.73-23a2.022,2.022,0,0,0-.133.7,1.8,1.8,0,0,0,.354,1.085,4.146,4.146,0,0,0,.935.908,10.283,10.283,0,0,0,1.323.8q.742.382,1.511.769t1.511.813a8.193,8.193,0,0,1,1.323.935,4.409,4.409,0,0,1,.935,1.129,2.76,2.76,0,0,1,.354,1.395,3.9,3.9,0,0,1-.376,1.7,3.831,3.831,0,0,1-1.118,1.367,5.558,5.558,0,0,1-1.843.913A8.815,8.815,0,0,1,25.965-10.14Zm16.4-15.539,7.039,15.318H45.644l-1.882-4.1H37.93l-1.97,4.1h-2.5L40.774-25.68Zm-3.741,9.828h4.516L40.918-20.7ZM62.29-25.37v1.284H55.2v4.947h6.253v1.284H55.2v7.493H51.51V-25.37Zm2.324,0h3.675v15.008H64.615Zm7.438,0H77.7a9.539,9.539,0,0,1,2.551.3,5.382,5.382,0,0,1,1.815.852,3.585,3.585,0,0,1,1.09,1.3,3.7,3.7,0,0,1,.365,1.638,2.994,2.994,0,0,1-.249,1.212,3.728,3.728,0,0,1-.7,1.051,4.7,4.7,0,0,1-1.085.852,6.987,6.987,0,0,1-1.4.614l5.346,7.183H81.427l-5.036-6.785h-.653v6.785H72.052Zm3.686,6.906h.8a4,4,0,0,0,1.251-.188,3.005,3.005,0,0,0,1-.537,2.44,2.44,0,0,0,.659-.858,2.687,2.687,0,0,0,.238-1.151,3.161,3.161,0,0,0-.183-1.1,2.635,2.635,0,0,0-.5-.858,2.221,2.221,0,0,0-.775-.559,2.423,2.423,0,0,0-.985-.2H75.738Zm11.09-6.906H90.5v15.008H86.828Z" transform="translate(674.386 103.978)" fill="#fff"/>
  </g>
</svg>
