<svg id="search" xmlns="http://www.w3.org/2000/svg" width="24.049" height="24.049" viewBox="0 0 24.049 24.049">
  <path id="Path_3168" data-name="Path 3168" d="M5.33,146.307l-.837,3.125-3.06.065a12.046,12.046,0,0,1-.089-11.228h0l2.724.5,1.193,2.708a7.176,7.176,0,0,0,.067,4.832Z" transform="translate(0 -131.773)" fill="#fbbb00"/>
  <path id="Path_3169" data-name="Path 3169" d="M273.178,208.176a12.02,12.02,0,0,1-4.286,11.623h0l-3.431-.175-.486-3.031a7.167,7.167,0,0,0,3.083-3.66h-6.43v-4.757h11.55Z" transform="translate(-249.339 -198.398)" fill="#518ef8"/>
  <path id="Path_3170" data-name="Path 3170" d="M48.628,316.277h0A12.028,12.028,0,0,1,30.509,312.6l3.9-3.19a7.152,7.152,0,0,0,10.305,3.661Z" transform="translate(-29.076 -294.876)" fill="#28b446"/>
  <path id="Path_3171" data-name="Path 3171" d="M46.979,2.768l-3.9,3.189A7.15,7.15,0,0,0,32.542,9.7L28.625,6.495h0A12.027,12.027,0,0,1,46.979,2.768Z" transform="translate(-27.28)" fill="#f14336"/>
</svg>
