<svg id="symbol-3" xmlns="http://www.w3.org/2000/svg" width="20.995" height="25.865" viewBox="0 0 20.995 25.865">
  <path id="Path_9276" data-name="Path 9276" d="M68.973,6.715,62.48.222A.758.758,0,0,0,61.944,0H50.987A2.79,2.79,0,0,0,48.2,2.787V23.078a2.79,2.79,0,0,0,2.787,2.787H66.408a2.79,2.79,0,0,0,2.787-2.787V7.251a.758.758,0,0,0-.222-.536ZM62.7,2.587l3.906,3.906H63.973A1.273,1.273,0,0,1,62.7,5.222Zm3.706,21.762H50.987a1.273,1.273,0,0,1-1.271-1.271V2.787a1.273,1.273,0,0,1,1.271-1.271h10.2V5.222a2.79,2.79,0,0,0,2.787,2.787h3.706V23.078A1.273,1.273,0,0,1,66.408,24.349Z" transform="translate(-48.2 0)" fill="#05f"/>
  <path id="edit-tools" d="M4.168,4.613a.737.737,0,0,1,.737-.737h10.03a.737.737,0,0,1,0,1.475H4.905A.737.737,0,0,1,4.168,4.613Zm11.5,2.95a.737.737,0,0,0-.737-.737H4.905a.737.737,0,0,0,0,1.475h10.03A.737.737,0,0,0,15.673,7.563ZM4.905,9.776a.737.737,0,0,0,0,1.475H8.3a.737.737,0,0,0,0-1.475Z" transform="translate(0.257 8.402)" fill="#05f"/>
</svg>
