<svg xmlns="http://www.w3.org/2000/svg" width="17.731" height="14.185" viewBox="0 0 17.731 14.185">
  <path id="twitter-logo" d="M0,12.576a7.5,7.5,0,0,0,.868.05,7.372,7.372,0,0,0,4.518-1.533,3.634,3.634,0,0,1-3.4-2.487A3.7,3.7,0,0,0,3.63,8.545,3.6,3.6,0,0,1,.712,5.033c0-.015,0-.03,0-.045a3.667,3.667,0,0,0,1.648.448A3.565,3.565,0,0,1,.742,2.456a3.522,3.522,0,0,1,.492-1.8A10.383,10.383,0,0,0,8.732,4.4a3.541,3.541,0,0,1-.094-.816A3.61,3.61,0,0,1,12.276,0a3.66,3.66,0,0,1,2.655,1.131,7.355,7.355,0,0,0,2.31-.869,3.6,3.6,0,0,1-1.6,1.981,7.363,7.363,0,0,0,2.089-.564,7.331,7.331,0,0,1-1.815,1.854q.01.23.011.463A10.2,10.2,0,0,1,5.576,14.184,10.416,10.416,0,0,1,0,12.576Z" fill="#2e3c43" fill-rule="evenodd"/>
</svg>
