<svg width="160" height="44" viewBox="0 0 160 44" fill="none" xmlns="http://www.w3.org/2000/svg">
<path d="M58.3998 29.6953C57.771 30.7859 57.0351 31.8119 56.2029 32.7582H59.7484C60.3832 31.7994 60.9062 30.7718 61.3073 29.6953H58.3998Z" fill="#00A699"/>
<path d="M59.72 26.4492C59.5321 27.2079 59.2703 27.9465 58.9382 28.6547H61.6355C61.8284 27.9338 61.9427 27.1944 61.9765 26.4492H59.72Z" fill="#00A699"/>
<path d="M54.8605 34.1904C53.495 35.5284 52.0291 36.7612 50.4758 37.8782H55.2254C56.4959 36.7521 57.6655 35.5182 58.7209 34.1904H54.8605Z" fill="#00A699"/>
<path d="M59.0922 20.0719H59.9665C59.0963 18.8547 58.0239 17.7941 56.7953 16.9355C57.7605 17.8209 58.541 18.8866 59.0922 20.0719V20.0719Z" fill="#00A699"/>
<path d="M59.9987 23.6777C60.0247 24.2554 59.9978 24.8342 59.9185 25.4071H61.9653C61.9262 24.8234 61.8333 24.2445 61.6878 23.6777H59.9987Z" fill="#00A699"/>
<path d="M48.4077 39.3105C45.7577 41.0353 43.0059 42.6002 40.1672 43.9969H46.7748C49.1326 42.5866 51.3928 41.0211 53.5404 39.3105H48.4077Z" fill="#00A699"/>
<path d="M59.3646 20.7041C59.6083 21.3272 59.7849 21.9741 59.8916 22.6342H61.3552C61.0977 21.9607 60.7738 21.3142 60.3886 20.7041H59.3646Z" fill="#00A699"/>
<path d="M17.312 43.9972C20.2866 43.5137 36.768 40.6488 47.5435 34.9349C60.7905 27.3541 55.9272 14.8223 55.9272 14.8223C56.8369 24.2251 52.1538 30.0199 45.4502 33.145C31.1514 39.0574 3.96442 43.3887 0 43.9995L17.312 43.9972Z" fill="#00A699"/>
<path d="M56.0045 15.2617C56.0113 15.3251 56.0187 15.3884 56.0256 15.4517C76.2087 26.5358 67.6107 41.6481 66.1046 43.9967H69.699C70.8906 41.4734 78.0314 24.2653 56.0045 15.2617Z" fill="#00A699"/>
<path d="M38.7759 24.3033C37.0264 24.3014 35.3399 23.6531 34.0436 22.4843C32.7474 21.3154 31.9339 19.7094 31.7607 17.9776C31.5876 16.2459 32.0673 14.5119 33.1068 13.1121C34.1463 11.7123 35.6714 10.7463 37.3863 10.4017C39.1012 10.0571 40.8838 10.3584 42.388 11.247C43.8923 12.1357 45.0111 13.5485 45.5274 15.2112C46.0437 16.874 45.9208 18.6683 45.1823 20.246C44.4439 21.8237 43.1427 23.0723 41.5311 23.7497C40.6595 24.1167 39.7224 24.305 38.7759 24.3033V24.3033ZM38.7759 12.0497C37.5635 12.0497 36.3885 12.4679 35.4512 13.2329C34.514 13.998 33.8723 15.0627 33.6358 16.2456C33.3992 17.4284 33.5823 18.6563 34.1539 19.7199C34.7254 20.7836 35.65 21.6172 36.7702 22.0787C37.8903 22.5403 39.1368 22.6012 40.2971 22.2511C41.4574 21.9011 42.4597 21.1617 43.1333 20.1589C43.807 19.1561 44.1102 17.952 43.9914 16.7518C43.8726 15.5515 43.3391 14.4294 42.4817 13.5766C41.9963 13.0908 41.4189 12.7057 40.7828 12.4434C40.1467 12.1811 39.4645 12.0469 38.7759 12.0486V12.0497Z" fill="#FF5A5F"/>
<path d="M26.5124 29.4611L34.0251 36.9322C34.7073 36.7437 35.3809 36.5522 36.0457 36.3576L27.811 28.1684C25.6394 26.0107 24.16 23.2608 23.56 20.2667C22.96 17.2725 23.2662 14.1686 24.4401 11.3477C25.6139 8.52669 27.6025 6.11541 30.1544 4.41888C32.7063 2.72235 35.7067 1.8168 38.7761 1.8168C41.8455 1.8168 44.8459 2.72235 47.3978 4.41888C49.9496 6.11541 51.9383 8.52669 53.1121 11.3477C54.2859 14.1686 54.5922 17.2725 53.9922 20.2667C53.3922 23.2608 51.9128 26.0107 49.7413 28.1684L44.2616 33.6188C44.6664 33.4612 45.0625 33.3025 45.4499 33.1427C48.3508 31.8609 50.8856 29.8815 52.8261 27.3829C53.6446 26.2624 54.3232 25.047 54.8467 23.7636C55.9149 20.9114 56.2852 17.8472 55.927 14.8245C55.927 14.8245 55.9389 14.8556 55.9599 14.9144C55.5863 12.2009 54.5687 9.61495 52.9913 7.37019C51.4139 5.12542 49.3219 3.28636 46.8884 2.00503C44.4549 0.723699 41.7498 0.0369121 38.9966 0.0014471C36.2434 -0.0340179 33.5213 0.582855 31.0553 1.80107C28.5893 3.01929 26.4502 4.80385 24.8149 7.00723C23.1796 9.21062 22.095 11.7695 21.6508 14.4724C21.2066 17.1753 21.4156 19.9445 22.2605 22.5512C23.1054 25.1578 24.5619 27.527 26.5096 29.4628L26.5124 29.4611Z" fill="#FF5A5F"/>
<path d="M82.747 4.69682H85.9985V13.166C85.9954 13.6519 86.0763 14.1347 86.2378 14.5933C86.3872 15.0237 86.6189 15.4212 86.9201 15.764C87.2188 16.0994 87.5845 16.369 87.994 16.5557C88.4405 16.7555 88.9258 16.855 89.4154 16.8469C89.8968 16.8539 90.3737 16.7545 90.8117 16.5557C91.2183 16.3689 91.5809 16.0991 91.876 15.764C92.1752 15.4203 92.4058 15.023 92.5554 14.5933C92.717 14.1346 92.798 13.6515 92.7948 13.1654V4.69682H94.8455V13.166C94.8493 13.8243 94.7318 14.4777 94.4987 15.0938C94.2664 15.701 93.8934 16.2451 93.4099 16.6818C92.8572 17.1685 92.2088 17.5358 91.5059 17.7602C90.6032 18.044 89.6597 18.1777 88.7132 18.1561C87.8392 18.172 86.9689 18.0381 86.1406 17.7602C85.4508 17.5274 84.815 17.1593 84.2707 16.6778C83.7789 16.2343 83.3907 15.689 83.1336 15.0803C82.8752 14.4651 82.7441 13.8044 82.7481 13.1377L82.747 4.69682ZM102.873 18.0611C102.168 18.0734 101.466 17.9802 100.788 17.7846C100.24 17.6251 99.7245 17.3678 99.2682 17.0251C98.8594 16.7106 98.5202 16.3155 98.2721 15.8646C98.0206 15.4027 97.849 14.902 97.7644 14.3835H100.02C100.094 14.7042 100.209 15.0143 100.361 15.3065C100.505 15.5853 100.698 15.8368 100.929 16.0496C101.169 16.265 101.447 16.4331 101.75 16.5449C102.102 16.671 102.474 16.7319 102.848 16.7248C103.122 16.7246 103.396 16.6952 103.664 16.6371C103.922 16.5831 104.17 16.4847 104.395 16.3465C104.605 16.2177 104.783 16.0414 104.912 15.8318C105.049 15.5944 105.117 15.3234 105.107 15.0497C105.113 14.681 105.008 14.3189 104.805 14.0103C104.588 13.6899 104.317 13.4089 104.004 13.1796C103.648 12.9153 103.269 12.683 102.872 12.4851C102.449 12.2713 102.016 12.0561 101.573 11.8393C101.13 11.6225 100.697 11.3942 100.274 11.1544C99.8697 10.9278 99.49 10.6592 99.142 10.3531C98.8183 10.0688 98.5474 9.73022 98.3415 9.35271C98.1346 8.95903 98.0306 8.51991 98.039 8.07578C98.0344 7.57087 98.1534 7.07244 98.3858 6.62353C98.6272 6.16791 98.9693 5.77269 99.3864 5.46761C99.8694 5.11788 100.412 4.85789 100.988 4.70021C101.691 4.50615 102.419 4.41302 103.148 4.42367C103.761 4.4159 104.372 4.50778 104.955 4.69569C105.471 4.86427 105.955 5.11878 106.385 5.44839C106.793 5.76298 107.145 6.14384 107.425 6.5749C107.704 7.00374 107.921 7.4696 108.07 7.95871H106.026C105.911 7.65168 105.774 7.3531 105.616 7.0652C105.466 6.78722 105.271 6.53486 105.041 6.31759C104.8 6.09616 104.518 5.92331 104.21 5.80862C103.838 5.6744 103.444 5.61016 103.048 5.61917C102.685 5.60957 102.323 5.66551 101.979 5.7843C101.72 5.87584 101.482 6.01965 101.281 6.20674C101.112 6.36704 100.982 6.56278 100.9 6.77961C100.824 6.97671 100.785 7.18564 100.783 7.39659C100.781 7.73917 100.89 8.07321 101.095 8.34835C101.327 8.65536 101.605 8.92409 101.92 9.1446C102.291 9.40809 102.681 9.64345 103.087 9.84867C103.523 10.0722 103.968 10.2973 104.42 10.5239C104.872 10.7505 105.316 10.9884 105.752 11.2376C106.168 11.4721 106.558 11.747 106.919 12.0581C107.248 12.3403 107.526 12.6752 107.744 13.0489C107.955 13.4222 108.063 13.8445 108.057 14.2727C108.061 14.7899 107.948 15.3013 107.725 15.7685C107.494 16.2395 107.157 16.6504 106.738 16.9685C106.251 17.3339 105.7 17.6057 105.112 17.7699C104.384 17.9751 103.629 18.0734 102.872 18.0617L102.873 18.0611ZM117.34 4.42537L123.552 17.8677H120.232L118.572 14.2738H113.427L111.688 17.8677H109.482L115.936 4.42537H117.34ZM114.043 13.0501H118.027L116.064 8.79624L114.043 13.0501ZM134.918 4.69682V5.82332H128.659V10.1648H134.174V11.2913H128.659V17.8677H125.407V4.69682H134.918ZM136.969 4.69682H140.209V17.8677H136.969V4.69682ZM143.53 4.69682H148.51C149.269 4.6844 150.026 4.77419 150.761 4.96374C151.337 5.11198 151.881 5.36674 152.362 5.71475C152.77 6.01308 153.1 6.40445 153.324 6.85596C153.541 7.30427 153.651 7.79609 153.647 8.2935C153.649 8.65941 153.574 9.02173 153.427 9.35724C153.276 9.69741 153.068 10.0095 152.812 10.2802C152.532 10.5748 152.209 10.8267 151.855 11.0278C151.464 11.2518 151.05 11.4326 150.62 11.5667L155.339 17.87H151.804L147.359 11.9139H146.783V17.8677H143.532L143.53 4.69682ZM146.782 10.7575H147.485C147.859 10.7609 148.232 10.7052 148.588 10.5923C148.909 10.4921 149.207 10.3322 149.467 10.1212C149.715 9.91673 149.914 9.65951 150.048 9.36855C150.192 9.0514 150.264 8.70648 150.258 8.35853C150.262 8.03114 150.208 7.70566 150.097 7.39716C149.999 7.12049 149.848 6.86504 149.653 6.64445C149.464 6.4338 149.231 6.26651 148.971 6.15415C148.697 6.0361 148.401 5.97657 148.102 5.97941H146.783L146.782 10.7575ZM156.566 4.69682H159.806V17.8677H156.566V4.69682Z" fill="#FF5A5F"/>
<rect x="82.747" y="23.1582" width="42.73" height="16.418" rx="8.209" fill="#00A699"/>
<path d="M92.747 27.1582H95.967C96.3197 27.1582 96.6493 27.2157 96.956 27.3307C97.2627 27.438 97.5272 27.5914 97.7495 27.7907C97.9795 27.9824 98.1597 28.2085 98.29 28.4692C98.4203 28.7299 98.4855 29.0097 98.4855 29.3087C98.4855 29.7457 98.3782 30.1137 98.1635 30.4127C97.9565 30.704 97.6958 30.9264 97.3815 31.0797V31.1717C97.8032 31.325 98.1405 31.5665 98.3935 31.8962C98.6542 32.2182 98.7845 32.6207 98.7845 33.1037C98.7845 33.4564 98.7117 33.7745 98.566 34.0582C98.428 34.3342 98.2363 34.5719 97.991 34.7712C97.7457 34.9705 97.4582 35.1239 97.1285 35.2312C96.8065 35.3385 96.4577 35.3922 96.082 35.3922H92.747V27.1582ZM95.852 30.5162C96.2123 30.5162 96.4883 30.4204 96.68 30.2287C96.8793 30.0294 96.979 29.7955 96.979 29.5272C96.979 29.2589 96.8832 29.0289 96.6915 28.8372C96.4998 28.6455 96.2353 28.5497 95.898 28.5497H94.2995V30.5162H95.852ZM96.0245 33.9662C96.4155 33.9662 96.7145 33.8704 96.9215 33.6787C97.1285 33.4794 97.232 33.2264 97.232 32.9197C97.232 32.613 97.1247 32.36 96.91 32.1607C96.703 31.9537 96.3925 31.8502 95.9785 31.8502H94.2995V33.9662H96.0245Z" fill="white"/>
<path d="M105.131 34.0352C104.871 34.4952 104.518 34.867 104.073 35.1507C103.636 35.4344 103.1 35.5762 102.463 35.5762C102.034 35.5762 101.635 35.5034 101.267 35.3577C100.907 35.2044 100.593 34.9935 100.324 34.7252C100.056 34.4569 99.8452 34.1425 99.6919 33.7822C99.5462 33.4142 99.4734 33.0117 99.4734 32.5747C99.4734 32.1684 99.5462 31.785 99.6919 31.4247C99.8376 31.0567 100.041 30.7385 100.301 30.4702C100.562 30.1942 100.869 29.9757 101.221 29.8147C101.582 29.6537 101.977 29.5732 102.406 29.5732C102.858 29.5732 103.261 29.6499 103.613 29.8032C103.966 29.9489 104.261 30.1559 104.499 30.4242C104.737 30.6849 104.917 30.9954 105.039 31.3557C105.162 31.716 105.223 32.107 105.223 32.5287C105.223 32.5824 105.223 32.6284 105.223 32.6667C105.216 32.7127 105.212 32.7549 105.212 32.7932C105.204 32.8315 105.2 32.8737 105.2 32.9197H100.957C100.988 33.1497 101.049 33.349 101.141 33.5177C101.241 33.6787 101.359 33.8167 101.497 33.9317C101.643 34.039 101.8 34.1195 101.969 34.1732C102.138 34.2192 102.31 34.2422 102.486 34.2422C102.831 34.2422 103.115 34.1655 103.337 34.0122C103.567 33.8512 103.748 33.6519 103.878 33.4142L105.131 34.0352ZM103.763 31.8502C103.755 31.7505 103.721 31.6394 103.659 31.5167C103.606 31.394 103.521 31.279 103.406 31.1717C103.299 31.0644 103.161 30.9762 102.992 30.9072C102.831 30.8382 102.636 30.8037 102.406 30.8037C102.084 30.8037 101.8 30.8957 101.555 31.0797C101.31 31.2637 101.137 31.5205 101.037 31.8502H103.763Z" fill="white"/>
<path d="M106.638 31.0452H105.649V29.7572H106.638V28.0322H108.145V29.7572H109.525V31.0452H108.145V33.2302C108.145 33.3605 108.156 33.4832 108.179 33.5982C108.21 33.7055 108.263 33.7975 108.34 33.8742C108.447 33.9969 108.601 34.0582 108.8 34.0582C108.93 34.0582 109.034 34.0467 109.111 34.0237C109.187 33.993 109.26 33.9547 109.329 33.9087L109.755 35.2312C109.578 35.3155 109.387 35.3769 109.18 35.4152C108.98 35.4612 108.758 35.4842 108.513 35.4842C108.229 35.4842 107.972 35.442 107.742 35.3577C107.52 35.2657 107.332 35.143 107.179 34.9897C106.818 34.6447 106.638 34.154 106.638 33.5177V31.0452Z" fill="white"/>
<path d="M113.994 34.7942H113.902C113.725 35.0089 113.511 35.1929 113.258 35.3462C113.012 35.4995 112.694 35.5762 112.303 35.5762C112.012 35.5762 111.736 35.5264 111.475 35.4267C111.222 35.3347 111 35.2044 110.808 35.0357C110.616 34.867 110.467 34.6639 110.36 34.4262C110.252 34.1885 110.199 33.9279 110.199 33.6442C110.199 33.3529 110.256 33.0922 110.371 32.8622C110.486 32.6245 110.647 32.4214 110.854 32.2527C111.061 32.084 111.303 31.9575 111.579 31.8732C111.862 31.7812 112.169 31.7352 112.499 31.7352C112.867 31.7352 113.169 31.7659 113.407 31.8272C113.645 31.8809 113.84 31.9384 113.994 31.9997V31.8272C113.994 31.5282 113.875 31.2829 113.637 31.0912C113.399 30.8919 113.104 30.7922 112.752 30.7922C112.23 30.7922 111.789 31.0107 111.429 31.4477L110.337 30.7002C110.935 29.9489 111.751 29.5732 112.786 29.5732C113.66 29.5732 114.327 29.7802 114.787 30.1942C115.247 30.6005 115.477 31.2062 115.477 32.0112V35.3922H113.994V34.7942ZM113.994 33.1037C113.817 33.0194 113.633 32.9542 113.442 32.9082C113.258 32.8545 113.054 32.8277 112.832 32.8277C112.472 32.8277 112.192 32.9082 111.993 33.0692C111.801 33.2225 111.705 33.4142 111.705 33.6442C111.705 33.8742 111.797 34.0582 111.981 34.1962C112.173 34.3342 112.391 34.4032 112.637 34.4032C112.836 34.4032 113.02 34.3687 113.189 34.2997C113.357 34.223 113.499 34.1272 113.614 34.0122C113.737 33.8895 113.829 33.7515 113.89 33.5982C113.959 33.4372 113.994 33.2724 113.994 33.1037Z" fill="white"/>
</svg>
