<svg width="160" height="44" viewBox="0 0 160 44" fill="none" xmlns="http://www.w3.org/2000/svg">
<path d="M58.3998 29.6953C57.771 30.7859 57.0351 31.8119 56.2029 32.7582H59.7484C60.3833 31.7994 60.9062 30.7718 61.3073 29.6953H58.3998Z" fill="white"/>
<path d="M59.72 26.4492C59.5321 27.2079 59.2703 27.9465 58.9382 28.6547H61.6355C61.8284 27.9338 61.9426 27.1944 61.9765 26.4492H59.72Z" fill="white"/>
<path d="M54.8604 34.1904C53.4949 35.5284 52.0291 36.7612 50.4758 37.8782H55.2253C56.4958 36.7521 57.6655 35.5182 58.7208 34.1904H54.8604Z" fill="white"/>
<path d="M59.0922 20.0719H59.9665C59.0964 18.8547 58.024 17.7941 56.7953 16.9355C57.7605 17.8209 58.541 18.8866 59.0922 20.0719V20.0719Z" fill="white"/>
<path d="M59.9987 23.6777C60.0247 24.2554 59.9978 24.8342 59.9185 25.4071H61.9653C61.9262 24.8234 61.8333 24.2445 61.6878 23.6777H59.9987Z" fill="white"/>
<path d="M48.4077 39.3105C45.7577 41.0353 43.0059 42.6002 40.1672 43.9969H46.7748C49.1326 42.5866 51.3928 41.0211 53.5404 39.3105H48.4077Z" fill="white"/>
<path d="M59.3646 20.7041C59.6083 21.3272 59.7849 21.9741 59.8917 22.6342H61.3552C61.0977 21.9607 60.7739 21.3142 60.3886 20.7041H59.3646Z" fill="white"/>
<path d="M17.312 43.9972C20.2866 43.5137 36.768 40.6488 47.5435 34.9349C60.7905 27.3541 55.9272 14.8223 55.9272 14.8223C56.8369 24.2251 52.1538 30.0199 45.4502 33.145C31.1514 39.0574 3.96442 43.3887 0 43.9995L17.312 43.9972Z" fill="white"/>
<path d="M56.0045 15.2617C56.0113 15.3251 56.0187 15.3884 56.0256 15.4517C76.2087 26.5358 67.6107 41.6481 66.1046 43.9967H69.699C70.8906 41.4734 78.0314 24.2653 56.0045 15.2617Z" fill="white"/>
<path d="M38.7759 24.3033C37.0263 24.3014 35.3399 23.6531 34.0436 22.4843C32.7474 21.3154 31.9338 19.7094 31.7607 17.9776C31.5876 16.2459 32.0673 14.5119 33.1068 13.1121C34.1462 11.7123 35.6714 10.7463 37.3863 10.4017C39.1012 10.0571 40.8837 10.3584 42.388 11.247C43.8923 12.1357 45.0111 13.5485 45.5274 15.2112C46.0437 16.874 45.9207 18.6683 45.1823 20.246C44.4439 21.8237 43.1427 23.0723 41.5311 23.7497C40.6595 24.1167 39.7224 24.305 38.7759 24.3033V24.3033ZM38.7759 12.0497C37.5634 12.0497 36.3885 12.4679 35.4512 13.2329C34.5139 13.998 33.8723 15.0627 33.6358 16.2456C33.3992 17.4284 33.5823 18.6563 34.1538 19.7199C34.7254 20.7836 35.65 21.6172 36.7701 22.0787C37.8903 22.5403 39.1368 22.6012 40.2971 22.2511C41.4574 21.9011 42.4597 21.1617 43.1333 20.1589C43.807 19.1561 44.1102 17.952 43.9914 16.7518C43.8726 15.5515 43.339 14.4294 42.4817 13.5766C41.9963 13.0908 41.4188 12.7057 40.7827 12.4434C40.1467 12.1811 39.4645 12.0469 38.7759 12.0486V12.0497Z" fill="white"/>
<path d="M26.5124 29.4611L34.0251 36.9322C34.7073 36.7437 35.3809 36.5522 36.0457 36.3576L27.811 28.1684C25.6394 26.0107 24.16 23.2608 23.56 20.2667C22.96 17.2725 23.2662 14.1686 24.4401 11.3477C25.6139 8.52669 27.6025 6.11541 30.1544 4.41888C32.7063 2.72235 35.7067 1.8168 38.7761 1.8168C41.8455 1.8168 44.8459 2.72235 47.3978 4.41888C49.9496 6.11541 51.9383 8.52669 53.1121 11.3477C54.2859 14.1686 54.5922 17.2725 53.9922 20.2667C53.3921 23.2608 51.9128 26.0107 49.7412 28.1684L44.2616 33.6188C44.6664 33.4612 45.0625 33.3025 45.4499 33.1427C48.3507 31.8609 50.8856 29.8815 52.8261 27.3829C53.6446 26.2624 54.3231 25.047 54.8467 23.7636C55.9149 20.9114 56.2852 17.8472 55.927 14.8245C55.927 14.8245 55.9389 14.8556 55.9599 14.9144C55.5863 12.2009 54.5687 9.61495 52.9913 7.37019C51.4138 5.12542 49.3219 3.28636 46.8884 2.00503C44.4549 0.723699 41.7498 0.0369121 38.9966 0.0014471C36.2434 -0.0340179 33.5213 0.582855 31.0553 1.80107C28.5893 3.01929 26.4502 4.80385 24.8149 7.00723C23.1796 9.21062 22.095 11.7695 21.6508 14.4724C21.2066 17.1753 21.4156 19.9445 22.2605 22.5512C23.1054 25.1578 24.5619 27.527 26.5096 29.4628L26.5124 29.4611Z" fill="white"/>
<path d="M82.747 4.9058H85.9985V13.375C85.9954 13.8609 86.0763 14.3437 86.2378 14.8023C86.3873 15.2326 86.6189 15.6301 86.9201 15.973C87.2188 16.3083 87.5846 16.578 87.9941 16.7647C88.4406 16.9645 88.9259 17.064 89.4154 17.0559C89.8968 17.0629 90.3737 16.9634 90.8117 16.7647C91.2183 16.5778 91.581 16.3081 91.876 15.973C92.1752 15.6292 92.4058 15.2319 92.5554 14.8023C92.717 14.3435 92.798 13.8605 92.7948 13.3744V4.9058H94.8455V13.375C94.8494 14.0333 94.7318 14.6867 94.4987 15.3028C94.2665 15.91 93.8934 16.454 93.41 16.8908C92.8572 17.3775 92.2088 17.7447 91.5059 17.9692C90.6032 18.253 89.6597 18.3867 88.7133 18.3651C87.8392 18.381 86.969 18.2471 86.1406 17.9692C85.4509 17.7363 84.815 17.3683 84.2707 16.8868C83.7789 16.4433 83.3907 15.898 83.1336 15.2892C82.8753 14.6741 82.7442 14.0134 82.7481 13.3467L82.747 4.9058ZM102.873 18.2701C102.168 18.2824 101.466 18.1892 100.788 17.9935C100.24 17.8341 99.7245 17.5767 99.2682 17.2341C98.8594 16.9196 98.5203 16.5245 98.2721 16.0736C98.0207 15.6117 97.849 15.111 97.7644 14.5925H100.02C100.094 14.9132 100.209 15.2233 100.361 15.5154C100.505 15.7943 100.698 16.0458 100.929 16.2585C101.169 16.474 101.447 16.6421 101.75 16.7539C102.102 16.88 102.474 16.9409 102.848 16.9338C103.122 16.9336 103.396 16.9042 103.664 16.8461C103.922 16.7921 104.17 16.6937 104.395 16.5554C104.605 16.4267 104.783 16.2504 104.912 16.0408C105.049 15.8033 105.117 15.5324 105.107 15.2587C105.113 14.8899 105.008 14.5279 104.805 14.2193C104.588 13.8988 104.317 13.6178 104.004 13.3885C103.648 13.1243 103.269 12.8919 102.872 12.6941C102.449 12.4803 102.016 12.2651 101.573 12.0483C101.13 11.8315 100.697 11.6032 100.275 11.3634C99.8697 11.1367 99.4901 10.8681 99.142 10.5621C98.8183 10.2778 98.5474 9.93921 98.3415 9.5617C98.1346 9.16801 98.0306 8.7289 98.039 8.28476C98.0344 7.77985 98.1534 7.28142 98.3858 6.83251C98.6272 6.3769 98.9693 5.98168 99.3864 5.6766C99.8694 5.32686 100.412 5.06687 100.988 4.90919C101.691 4.71513 102.419 4.62201 103.148 4.63266C103.761 4.62488 104.372 4.71677 104.955 4.90467C105.471 5.07325 105.955 5.32777 106.385 5.65737C106.793 5.97197 107.145 6.35282 107.425 6.78388C107.704 7.21273 107.921 7.67858 108.07 8.1677H106.026C105.911 7.86066 105.774 7.56208 105.616 7.27418C105.466 6.9962 105.271 6.74385 105.041 6.52657C104.8 6.30514 104.518 6.1323 104.211 6.01761C103.838 5.88339 103.444 5.81914 103.048 5.82816C102.685 5.81855 102.323 5.8745 101.979 5.99329C101.72 6.08482 101.482 6.22864 101.281 6.41573C101.112 6.57602 100.982 6.77176 100.9 6.9886C100.824 7.18569 100.785 7.39462 100.783 7.60557C100.781 7.94816 100.89 8.28219 101.095 8.55734C101.327 8.86434 101.605 9.13307 101.92 9.35359C102.291 9.61708 102.681 9.85243 103.087 10.0577C103.523 10.2812 103.968 10.5063 104.42 10.7329C104.872 10.9595 105.316 11.1974 105.752 11.4466C106.168 11.6811 106.558 11.9559 106.919 12.2671C107.248 12.5493 107.526 12.8842 107.744 13.2579C107.955 13.6312 108.063 14.0534 108.057 14.4817C108.061 14.9988 107.948 15.5103 107.725 15.9775C107.494 16.4485 107.157 16.8594 106.738 17.1775C106.251 17.5429 105.7 17.8147 105.112 17.9788C104.384 18.1841 103.629 18.2824 102.872 18.2706L102.873 18.2701ZM117.34 4.63435L123.552 18.0767H120.233L118.572 14.4828H113.427L111.688 18.0767H109.482L115.936 4.63435H117.34ZM114.043 13.259H118.027L116.064 9.00523L114.043 13.259ZM134.918 4.9058V6.03231H128.659V10.3738H134.174V11.5003H128.659V18.0767H125.407V4.9058H134.918ZM136.969 4.9058H140.209V18.0767H136.969V4.9058ZM143.53 4.9058H148.51C149.269 4.89338 150.026 4.98317 150.761 5.17272C151.337 5.32096 151.881 5.57573 152.362 5.92373C152.77 6.22207 153.1 6.61344 153.324 7.06494C153.541 7.51325 153.651 8.00507 153.647 8.50248C153.649 8.86839 153.574 9.23071 153.427 9.56622C153.276 9.9064 153.068 10.2185 152.812 10.4891C152.532 10.7838 152.209 11.0357 151.855 11.2368C151.464 11.4608 151.05 11.6415 150.62 11.7757L155.339 18.0789H151.804L147.359 12.1229H146.783V18.0767H143.532L143.53 4.9058ZM146.782 10.9664H147.485C147.859 10.9699 148.232 10.9142 148.588 10.8013C148.909 10.7011 149.207 10.5412 149.467 10.3302C149.715 10.1257 149.914 9.8685 150.048 9.57753C150.192 9.26039 150.264 8.91546 150.258 8.56752C150.262 8.24012 150.208 7.91464 150.097 7.60614C149.999 7.32948 149.848 7.07402 149.653 6.85344C149.464 6.64278 149.231 6.47549 148.971 6.36314C148.697 6.24508 148.401 6.18555 148.102 6.18839H146.783L146.782 10.9664ZM156.566 4.9058H159.806V18.0767H156.566V4.9058Z" fill="white"/>
<path fill-rule="evenodd" clip-rule="evenodd" d="M90.747 23.3672C86.3287 23.3672 82.747 26.9489 82.747 31.3672C82.747 35.7855 86.3287 39.3672 90.747 39.3672H116.747C121.165 39.3672 124.747 35.7855 124.747 31.3672C124.747 26.9489 121.165 23.3672 116.747 23.3672H90.747ZM95.967 27.3672H92.747V35.6012H96.082C96.4577 35.6012 96.8065 35.5475 97.1285 35.4402C97.4582 35.3329 97.7457 35.1795 97.991 34.9802C98.2363 34.7809 98.428 34.5432 98.566 34.2672C98.7117 33.9835 98.7845 33.6654 98.7845 33.3127C98.7845 32.8297 98.6542 32.4272 98.3935 32.1052C98.1405 31.7755 97.8032 31.534 97.3815 31.3807V31.2887C97.6958 31.1354 97.9565 30.913 98.1635 30.6217C98.3782 30.3227 98.4855 29.9547 98.4855 29.5177C98.4855 29.2187 98.4203 28.9389 98.29 28.6782C98.1597 28.4175 97.9795 28.1914 97.7495 27.9997C97.5272 27.8004 97.2627 27.647 96.956 27.5397C96.6493 27.4247 96.3197 27.3672 95.967 27.3672ZM96.68 30.4377C96.4883 30.6294 96.2123 30.7252 95.852 30.7252H94.2995V28.7587H95.898C96.2353 28.7587 96.4998 28.8545 96.6915 29.0462C96.8832 29.2379 96.979 29.4679 96.979 29.7362C96.979 30.0045 96.8793 30.2384 96.68 30.4377ZM96.9215 33.8877C96.7145 34.0794 96.4155 34.1752 96.0245 34.1752H94.2995V32.0592H95.9785C96.3925 32.0592 96.703 32.1627 96.91 32.3697C97.1247 32.569 97.232 32.822 97.232 33.1287C97.232 33.4354 97.1285 33.6884 96.9215 33.8877ZM104.073 35.3597C104.518 35.076 104.871 34.7042 105.131 34.2442L103.878 33.6232C103.748 33.8609 103.567 34.0602 103.337 34.2212C103.115 34.3745 102.831 34.4512 102.486 34.4512C102.31 34.4512 102.138 34.4282 101.969 34.3822C101.8 34.3285 101.643 34.248 101.497 34.1407C101.359 34.0257 101.241 33.8877 101.141 33.7267C101.049 33.558 100.988 33.3587 100.957 33.1287H105.2C105.2 33.0827 105.204 33.0405 105.212 33.0022C105.212 32.9639 105.216 32.9217 105.223 32.8757V32.7377C105.223 32.316 105.162 31.925 105.039 31.5647C104.917 31.2044 104.737 30.8939 104.499 30.6332C104.261 30.3649 103.966 30.1579 103.613 30.0122C103.261 29.8589 102.858 29.7822 102.406 29.7822C101.977 29.7822 101.582 29.8627 101.221 30.0237C100.869 30.1847 100.562 30.4032 100.301 30.6792C100.041 30.9475 99.8376 31.2657 99.6919 31.6337C99.5463 31.994 99.4734 32.3774 99.4734 32.7837C99.4734 33.2207 99.5463 33.6232 99.6919 33.9912C99.8453 34.3515 100.056 34.6659 100.324 34.9342C100.593 35.2025 100.907 35.4134 101.267 35.5667C101.635 35.7124 102.034 35.7852 102.463 35.7852C103.1 35.7852 103.636 35.6434 104.073 35.3597ZM103.659 31.7257C103.721 31.8484 103.755 31.9595 103.763 32.0592H101.037C101.137 31.7295 101.31 31.4727 101.555 31.2887C101.8 31.1047 102.084 31.0127 102.406 31.0127C102.636 31.0127 102.831 31.0472 102.992 31.1162C103.161 31.1852 103.299 31.2734 103.406 31.3807C103.521 31.488 103.606 31.603 103.659 31.7257ZM106.638 31.2542H105.649V29.9662H106.638V28.2412H108.145V29.9662H109.525V31.2542H108.145V33.4392C108.145 33.5695 108.156 33.6922 108.179 33.8072C108.21 33.9145 108.263 34.0065 108.34 34.0832C108.447 34.2059 108.601 34.2672 108.8 34.2672C108.93 34.2672 109.034 34.2557 109.111 34.2327C109.187 34.202 109.26 34.1637 109.329 34.1177L109.755 35.4402C109.578 35.5245 109.387 35.5859 109.18 35.6242C108.98 35.6702 108.758 35.6932 108.513 35.6932C108.229 35.6932 107.972 35.651 107.742 35.5667C107.52 35.4747 107.332 35.352 107.179 35.1987C106.818 34.8537 106.638 34.363 106.638 33.7267V31.2542ZM113.902 35.0032H113.994V35.6012H115.477V32.2202C115.477 31.4152 115.247 30.8095 114.787 30.4032C114.327 29.9892 113.66 29.7822 112.786 29.7822C111.751 29.7822 110.935 30.1579 110.337 30.9092L111.429 31.6567C111.789 31.2197 112.23 31.0012 112.752 31.0012C113.104 31.0012 113.399 31.1009 113.637 31.3002C113.875 31.4919 113.994 31.7372 113.994 32.0362V32.2087C113.84 32.1474 113.645 32.0899 113.407 32.0362C113.169 31.9749 112.867 31.9442 112.499 31.9442C112.169 31.9442 111.862 31.9902 111.579 32.0822C111.303 32.1665 111.061 32.293 110.854 32.4617C110.647 32.6304 110.486 32.8335 110.371 33.0712C110.256 33.3012 110.199 33.5619 110.199 33.8532C110.199 34.1369 110.252 34.3975 110.36 34.6352C110.467 34.8729 110.616 35.076 110.808 35.2447C111 35.4134 111.222 35.5437 111.475 35.6357C111.736 35.7354 112.012 35.7852 112.303 35.7852C112.694 35.7852 113.012 35.7085 113.258 35.5552C113.511 35.4019 113.725 35.2179 113.902 35.0032ZM113.442 33.1172C113.633 33.1632 113.817 33.2284 113.994 33.3127C113.994 33.4814 113.959 33.6462 113.89 33.8072C113.829 33.9605 113.737 34.0985 113.614 34.2212C113.499 34.3362 113.357 34.432 113.189 34.5087C113.02 34.5777 112.836 34.6122 112.637 34.6122C112.391 34.6122 112.173 34.5432 111.981 34.4052C111.797 34.2672 111.705 34.0832 111.705 33.8532C111.705 33.6232 111.801 33.4315 111.993 33.2782C112.192 33.1172 112.472 33.0367 112.832 33.0367C113.054 33.0367 113.258 33.0635 113.442 33.1172Z" fill="white"/>
</svg>
