<svg xmlns="http://www.w3.org/2000/svg" xmlns:xlink="http://www.w3.org/1999/xlink" width="32" height="32" viewBox="0 0 32 32">
  <defs>
    <clipPath id="clip-path">
      <rect id="Rectangle_2866" data-name="Rectangle 2866" width="32" height="32" transform="translate(31 219)" fill="#fff"/>
    </clipPath>
  </defs>
  <g id="users" transform="translate(-31 -219)" clip-path="url(#clip-path)">
    <g id="Group_5849" data-name="Group 5849" transform="translate(22 -138.156)">
      <g id="Page-1" transform="translate(11 359.156)" opacity="0.5">
        <g id="Icon-Set-Filled">
          <path id="user-list" d="M423.794,326.808c4.426,0,8.013-3.987,8.013-8.9s-3.587-8.9-8.013-8.9-8.013,3.987-8.013,8.9,3.587,8.9,8.013,8.9Zm7.749-2.387a9.287,9.287,0,0,1-15.5,0A5.278,5.278,0,0,0,414,328.588v3.561a5.343,5.343,0,0,0,5.342,5.342h8.9a5.343,5.343,0,0,0,5.342-5.342v-3.561a5.278,5.278,0,0,0-2.045-4.168Z" transform="translate(-414 -309)" fill="#fff" fill-rule="evenodd"/>
        </g>
      </g>
      <g id="Page-1-2" data-name="Page-1" transform="translate(11 357.156)">
        <g id="Icon-Set-Filled-2" data-name="Icon-Set-Filled">
          <path id="user-list-2" data-name="user-list" d="M441.6,325.027h-5.342a.89.89,0,0,0,0,1.781H441.6a.89.89,0,0,0,0-1.781Zm0-5.342h-7.123c-.492,0-.492,1.781,0,1.781H441.6a.89.89,0,1,0,0-1.781Zm-7.123-3.562H441.6a.89.89,0,0,0,0-1.781h-7.123c-.492,0-.492,1.781,0,1.781Zm7.123,14.246h-5.342a.89.89,0,0,0,0,1.781H441.6a.89.89,0,0,0,0-1.781Z" transform="translate(-414 -309)" fill="#fff" fill-rule="evenodd"/>
        </g>
      </g>
    </g>
  </g>
</svg>
