<svg xmlns="http://www.w3.org/2000/svg" width="21.915" height="15.413" viewBox="0 0 21.915 15.413">
  <path id="youtube-logo" d="M36.473,66.408a2.853,2.853,0,0,0-1.967-1.967C32.821,64,25.957,64,25.957,64s-6.863,0-8.549.442a2.853,2.853,0,0,0-1.967,1.967,29.872,29.872,0,0,0-.442,5.3,30.241,30.241,0,0,0,.442,5.338,2.874,2.874,0,0,0,1.967,1.927c1.686.442,8.549.442,8.549.442s6.863,0,8.549-.442a2.874,2.874,0,0,0,1.967-1.927,30.241,30.241,0,0,0,.442-5.338A29.872,29.872,0,0,0,36.473,66.408ZM23.71,75V68.455l5.74,3.251Z" transform="translate(-15 -64)" fill="#2e3c43"/>
</svg>
