<svg xmlns="http://www.w3.org/2000/svg" xmlns:xlink="http://www.w3.org/1999/xlink" width="52" height="52" viewBox="0 0 52 52">
  <defs>
    <linearGradient id="linear-gradient" x1="0.194" y1="1.047" x2="0.806" y2="0.231" gradientUnits="objectBoundingBox">
      <stop offset="0" stop-color="#b7bfd8"/>
      <stop offset="0.015" stop-color="#003d67"/>
      <stop offset="1" stop-color="#056db6"/>
    </linearGradient>
  </defs>
  <g id="Group_6508" data-name="Group 6508" transform="translate(-657 -366)">
    <rect id="Rectangle_1953" data-name="Rectangle 1953" width="52" height="52" rx="4" transform="translate(657 366)" fill="#e5f0f8"/>
    <g id="_07-windy_couldy" data-name="07-windy couldy" transform="translate(665 375)">
      <g id="gradient" transform="translate(0 0)">
        <path id="Path_28" data-name="Path 28" d="M274.176,205.736H260.868a.868.868,0,0,1,0-1.736h13.309a.868.868,0,1,1,0,1.736Z" transform="translate(-241.484 -191.27)" fill="#0087e6"/>
        <path id="Path_30" data-name="Path 30" d="M235.233,325.736h-6.365a.868.868,0,1,1,0-1.736h6.365a.868.868,0,1,1,0,1.736Z" transform="translate(-211.798 -302.591)" fill="#0087e6"/>
        <path id="Path_31" data-name="Path 31" d="M60.39,261.736H52.868a.868.868,0,0,1,0-1.736H60.39a.868.868,0,0,1,0,1.736Z" transform="translate(-48.528 -243.22)" fill="#0087e6"/>
        <g id="Group_5891" data-name="Group 5891">
          <path id="Path_25" data-name="Path 25" d="M279.283,90.363H268.868a.868.868,0,0,1,0-1.736h10.415a1.447,1.447,0,1,0-1.085-2.4.868.868,0,0,1-1.3-1.149,3.182,3.182,0,1,1,2.387,5.288Z" transform="translate(-248.905 -79.948)" fill="#056db6"/>
          <path id="Path_26" data-name="Path 26" d="M319.283,266.365a3.185,3.185,0,0,1-2.387-1.077.868.868,0,1,1,1.3-1.149,1.447,1.447,0,1,0,1.085-2.4H308.868a.868.868,0,0,1,0-1.736h10.415a3.182,3.182,0,1,1,0,6.365Z" transform="translate(-286.012 -243.219)" fill="#056db6"/>
          <path id="Path_27" data-name="Path 27" d="M7.182,330.365a3.182,3.182,0,0,1,0-6.365H17.6a.868.868,0,1,1,0,1.736H7.182a1.447,1.447,0,1,0,1.085,2.4.868.868,0,1,1,1.3,1.149,3.185,3.185,0,0,1-2.387,1.077Z" transform="translate(-4 -302.59)" fill="#056db6"/>
          <path id="Path_29" data-name="Path 29" d="M198.025,205.736h-1.157a.868.868,0,0,1,0-1.736h1.157a.868.868,0,0,1,0,1.736Z" transform="translate(-182.113 -191.27)" fill="#056db6"/>
          <path id="Path_32" data-name="Path 32" d="M208.918,261.736h-4.05a.868.868,0,0,1,0-1.736h4.05a.868.868,0,1,1,0,1.736Z" transform="translate(-189.534 -243.219)" fill="#056db6"/>
        </g>
        <path id="Path_33" data-name="Path 33" d="M46.289,30.9a3.762,3.762,0,0,0-7.34.078,3.761,3.761,0,0,0,.785,7.44H46.1a3.761,3.761,0,0,0,.189-7.518Z" transform="translate(-33.659 -27.999)" fill="url(#linear-gradient)"/>
        <path id="Path_34" data-name="Path 34" d="M295.142,365.958a5.552,5.552,0,1,0-6.554,7.517h6.365a3.761,3.761,0,0,0,.189-7.517Z" transform="translate(-264.512 -338.825)" fill="url(#linear-gradient)"/>
      </g>
    </g>
  </g>
</svg>
