<svg xmlns="http://www.w3.org/2000/svg" width="19.969" height="16.031" viewBox="0 0 19.969 16.031">
  <path id="Path_5619" data-name="Path 5619" d="M8.016-15.984V-18L0-12.984-8.016-18v2.016L0-11.016Zm0-4.031a1.856,1.856,0,0,1,1.383.609A1.969,1.969,0,0,1,9.984-18V-6A1.969,1.969,0,0,1,9.4-4.594a1.856,1.856,0,0,1-1.383.609H-8.016A1.856,1.856,0,0,1-9.4-4.594,1.969,1.969,0,0,1-9.984-6V-18A1.969,1.969,0,0,1-9.4-19.406a1.856,1.856,0,0,1,1.383-.609Z" transform="translate(9.984 20.016)" fill="#056db6"/>
</svg>
