<svg xmlns="http://www.w3.org/2000/svg" width="98.496" height="17.28" viewBox="0 0 98.496 17.28">
  <path id="Path_5279" data-name="Path 5279" d="M.288-1.056h.768q1.32,0,1.32-.936V-14.808q0-.936-1.32-.936H.288V-16.8H9.84q3.144,0,4.452,1.368a5.333,5.333,0,0,1,1.308,3.84,5.368,5.368,0,0,1-1.308,3.864Q12.984-6.36,9.84-6.36h-3v4.368a.818.818,0,0,0,.312.708,1.684,1.684,0,0,0,.984.228H8.9V0H.288ZM8.76-7.872A2.012,2.012,0,0,0,10.6-8.808a5.3,5.3,0,0,0,.588-2.784,5.235,5.235,0,0,0-.588-2.772,2.02,2.02,0,0,0-1.836-.924H6.84v7.416ZM25.584.24q-4.3,0-6.516-2.316A8.759,8.759,0,0,1,16.848-8.4a10.021,10.021,0,0,1,.972-4.536,6.953,6.953,0,0,1,2.916-3.024,9.714,9.714,0,0,1,4.776-1.08,9.142,9.142,0,0,1,5.04,1.368.293.293,0,0,0,.216.072q.192,0,.192-.216v-1.1h1.416v5.136H31.152a3.739,3.739,0,0,0-1.56-2.808,5.331,5.331,0,0,0-3.048-.888,4.488,4.488,0,0,0-2.724.852,5.427,5.427,0,0,0-1.8,2.448,10.189,10.189,0,0,0-.636,3.78A9.379,9.379,0,0,0,22.62-3.18a3.976,3.976,0,0,0,3.516,1.86,6.79,6.79,0,0,0,3.012-.66A4.409,4.409,0,0,0,31.224-4.2h1.488A4.949,4.949,0,0,1,31.5-1.944a6.368,6.368,0,0,1-2.436,1.6A9.556,9.556,0,0,1,25.584.24Zm17.424,0q-4.3,0-6.516-2.316A8.759,8.759,0,0,1,34.272-8.4a10.021,10.021,0,0,1,.972-4.536A6.953,6.953,0,0,1,38.16-15.96a9.714,9.714,0,0,1,4.776-1.08,9.142,9.142,0,0,1,5.04,1.368.293.293,0,0,0,.216.072q.192,0,.192-.216v-1.1H49.8v5.136H48.576a3.739,3.739,0,0,0-1.56-2.808,5.331,5.331,0,0,0-3.048-.888,4.488,4.488,0,0,0-2.724.852,5.427,5.427,0,0,0-1.8,2.448,10.189,10.189,0,0,0-.636,3.78,9.379,9.379,0,0,0,1.236,5.22A3.976,3.976,0,0,0,43.56-1.32a6.79,6.79,0,0,0,3.012-.66A4.409,4.409,0,0,0,48.648-4.2h1.488a4.949,4.949,0,0,1-1.212,2.256,6.368,6.368,0,0,1-2.436,1.6A9.556,9.556,0,0,1,43.008.24Zm8.328-1.3h.744q1.32,0,1.32-.936V-14.808q0-.936-1.32-.936h-.744V-16.8h8.592v1.056h-.744q-1.32,0-1.32.936V-1.992q0,.936,1.32.936h.744V0H51.336Zm9.312,0h.768q1.32,0,1.32-.936V-14.808q0-.936-1.32-.936h-.768V-16.8h6.36l4.8,11.5,1.368-3.144q2.76-6.384,3.576-8.352h6.84v1.056h-.744q-1.32,0-1.32.936V-1.992q0,.936,1.32.936h.744V0H75V-1.056h.744q1.32,0,1.32-.936V-13.32L72.024-1.776h-2.64L64.512-13.248V-1.992a.818.818,0,0,0,.312.708,1.684,1.684,0,0,0,.984.228h.768V0H60.648Zm31.2,1.3a9.764,9.764,0,0,1-2.976-.36,11.527,11.527,0,0,1-2.184-1.008A.639.639,0,0,0,86.4-1.2a.166.166,0,0,0-.108.06.211.211,0,0,0-.06.156V.1H84.816V-5.016h1.248a3.693,3.693,0,0,0,1.62,2.8,5.524,5.524,0,0,0,3.084.9,4.57,4.57,0,0,0,2.508-.624,2.24,2.24,0,0,0,.972-2.04,2.156,2.156,0,0,0-.516-1.476,4.006,4.006,0,0,0-1.284-.96,21.327,21.327,0,0,0-2.136-.852A26.414,26.414,0,0,1,87.54-8.46a5.15,5.15,0,0,1-1.788-1.548,4.211,4.211,0,0,1-.744-2.568,3.734,3.734,0,0,1,1.716-3.336A8.514,8.514,0,0,1,91.44-17.04a9.751,9.751,0,0,1,2.676.3,7.243,7.243,0,0,1,1.908.876q.048.024.192.12a.487.487,0,0,0,.264.1q.168,0,.168-.312v-.96h1.44v5.112H96.84a3.843,3.843,0,0,0-1.464-2.784,4.773,4.773,0,0,0-2.88-.888,3.819,3.819,0,0,0-2.016.552,1.77,1.77,0,0,0-.912,1.608,1.888,1.888,0,0,0,.48,1.32,3.727,3.727,0,0,0,1.2.864,19.835,19.835,0,0,0,2.016.768A23.746,23.746,0,0,1,96.12-9.216,5.157,5.157,0,0,1,98-7.584a4.728,4.728,0,0,1,.78,2.832,4.157,4.157,0,0,1-1.908,3.78A9.264,9.264,0,0,1,91.848.24Z" transform="translate(-0.288 17.04)" fill="#fff"/>
</svg>
