<svg xmlns="http://www.w3.org/2000/svg" width="22.255" height="18.512" viewBox="0 0 22.255 18.512">
  <path id="_008-twitter" data-name="008-twitter" d="M21.9,36.644a8.812,8.812,0,0,1-1.534.517,4.784,4.784,0,0,0,1.263-2.011h0a.251.251,0,0,0-.367-.292h0a8.854,8.854,0,0,1-2.346.969.6.6,0,0,1-.147.018.622.622,0,0,1-.411-.157,4.8,4.8,0,0,0-3.175-1.2,5.13,5.13,0,0,0-1.52.235,4.648,4.648,0,0,0-3.133,3.349,5.118,5.118,0,0,0-.114,1.767.172.172,0,0,1-.043.135.178.178,0,0,1-.132.06h-.017a12.581,12.581,0,0,1-8.647-4.62h0a.251.251,0,0,0-.411.032h0a4.8,4.8,0,0,0,.781,5.832,4.3,4.3,0,0,1-1.094-.424h0a.251.251,0,0,0-.373.216h0a4.8,4.8,0,0,0,2.8,4.426h-.1a4.317,4.317,0,0,1-.808-.077h0a.251.251,0,0,0-.286.323h0a4.809,4.809,0,0,0,3.8,3.271A8.853,8.853,0,0,1,.926,50.522H.371a.367.367,0,0,0-.359.277.38.38,0,0,0,.182.42A13.169,13.169,0,0,0,6.811,53a13.349,13.349,0,0,0,5.655-1.2A12.487,12.487,0,0,0,16.6,48.7a13.593,13.593,0,0,0,2.533-4.243A13.4,13.4,0,0,0,20,39.816v-.073a.816.816,0,0,1,.306-.635,9.483,9.483,0,0,0,1.908-2.094h0a.251.251,0,0,0-.31-.369Z" transform="translate(0 -34.491)" fill="#056db6"/>
</svg>
